<svg width="31" height="30" viewBox="0 0 31 30" fill="none" xmlns="http://www.w3.org/2000/svg">
<path d="M29.0691 0.931264C27.8269 -0.310421 25.8141 -0.310421 24.5725 0.931264L15.0002 10.5036L5.42787 0.931264C4.18576 -0.310421 2.17295 -0.310421 0.931264 0.931264C-0.310421 2.17295 -0.310421 4.18618 0.931264 5.42744L10.5036 15.0002L0.931264 24.5725C-0.310421 25.8146 -0.310421 27.8274 0.931264 29.0691C1.55232 29.6897 2.36626 30 3.17978 30C3.9933 30 4.80724 29.6897 5.42829 29.0691L15.0006 19.4968L24.5729 29.0691C25.1939 29.6897 26.0079 30 26.8214 30C27.6349 30 28.4488 29.6897 29.0699 29.0691C30.3116 27.8269 30.3116 25.8141 29.0699 24.5725L19.4976 15.0002L29.0699 5.42744C30.3107 4.18618 30.3107 2.17295 29.0691 0.931264Z" fill="#007FBA"/>
</svg>
