<svg width="30" height="31" viewBox="0 0 30 31" fill="none" xmlns="http://www.w3.org/2000/svg">
<path d="M15 30.3897C6.72632 30.3897 0 23.6349 0 15.3261C0 7.0173 6.72632 0.262451 15 0.262451C23.2737 0.262451 30 7.0173 30 15.3261C30 23.6349 23.2737 30.3897 15 30.3897ZM15 1.8481C7.59474 1.8481 1.57895 7.88941 1.57895 15.3261C1.57895 22.7628 7.59474 28.8041 15 28.8041C22.4053 28.8041 28.4211 22.7628 28.4211 15.3261C28.4211 7.88941 22.4053 1.8481 15 1.8481Z" fill="#007FBA"/>
<path d="M16.9737 21.6686H11.0527C10.6106 21.6686 10.2632 21.3197 10.2632 20.8757C10.2632 20.4318 10.6106 20.0829 11.0527 20.0829H16.9737C17.6211 20.0829 18.1421 19.6072 18.1421 19.0205V17.1653C18.1421 16.5786 17.6211 16.1029 16.9737 16.1029H13.0421C11.5263 16.1029 10.2948 14.9137 10.2948 13.4549V11.6314C10.279 10.1726 11.5263 8.9834 13.0421 8.9834H18.9474C19.3895 8.9834 19.7369 9.33224 19.7369 9.77622C19.7369 10.2202 19.3895 10.569 18.9474 10.569H13.0421C12.3948 10.569 11.8737 11.0447 11.8737 11.6314V13.4866C11.8737 14.0733 12.3948 14.549 13.0421 14.549H16.9737C18.4895 14.549 19.7211 15.7383 19.7211 17.197V19.0523C19.7211 20.4793 18.4895 21.6686 16.9737 21.6686Z" fill="#007FBA"/>
<path d="M14.9999 9.77623C14.5578 9.77623 14.2104 9.42738 14.2104 8.9834V5.81211C14.2104 5.36813 14.5578 5.01929 14.9999 5.01929C15.442 5.01929 15.7894 5.36813 15.7894 5.81211V8.9834C15.7894 9.42738 15.442 9.77623 14.9999 9.77623Z" fill="#007FBA"/>
<path d="M14.9999 25.6329C14.5578 25.6329 14.2104 25.2841 14.2104 24.8401V21.6688C14.2104 21.2248 14.5578 20.876 14.9999 20.876C15.442 20.876 15.7894 21.2248 15.7894 21.6688V24.8401C15.7894 25.2841 15.442 25.6329 14.9999 25.6329Z" fill="#007FBA"/>
</svg>
