<svg width="50" height="50" viewBox="0 0 50 50" fill="none" xmlns="http://www.w3.org/2000/svg">
<path d="M21.125 40.375H27.1528V25.875H31.2222L31.75 20.75H27.1528V17.75C27.1279 17.5713 27.1429 17.3893 27.1967 17.2171C27.2505 17.0449 27.3417 16.8867 27.4639 16.754C27.586 16.6212 27.7361 16.5171 27.9032 16.4492C28.0703 16.3813 28.2504 16.3512 28.4306 16.3611H31.6667V11.375H27.2084C26.393 11.3101 25.5733 11.423 24.8058 11.7057C24.0382 11.9885 23.3412 12.4345 22.7629 13.0128C22.1845 13.5912 21.7385 14.2882 21.4558 15.0557C21.173 15.8232 21.0601 16.643 21.125 17.4583V20.7778H18.2639V25.9028H21.125V40.375Z" fill="white"/>
<path d="M25 0C20.0555 0 15.222 1.46622 11.1108 4.21326C6.99952 6.96029 3.79521 10.8648 1.90302 15.4329C0.0108321 20.0011 -0.484251 25.0277 0.480379 29.8772C1.44501 34.7268 3.82603 39.1813 7.32234 42.6777C10.8187 46.174 15.2732 48.555 20.1227 49.5196C24.9723 50.4842 29.9989 49.9892 34.5671 48.097C39.1352 46.2048 43.0397 43.0005 45.7867 38.8892C48.5338 34.778 50 29.9445 50 25C50 18.3696 47.3661 12.0107 42.6777 7.32233C37.9893 2.63392 31.6304 0 25 0V0ZM31.2222 25.875H27.1528V40.375H21.125V25.875H18.2639V20.75H21.125V17.4444C21.0601 16.6291 21.173 15.8093 21.4557 15.0418C21.7385 14.2743 22.1845 13.5773 22.7629 12.999C23.3412 12.4206 24.0382 11.9746 24.8057 11.6918C25.5732 11.4091 26.393 11.2962 27.2083 11.3611H31.6667V16.3333H28.4306C28.2504 16.3234 28.0703 16.3535 27.9032 16.4214C27.736 16.4893 27.586 16.5934 27.4639 16.7262C27.3417 16.859 27.2505 17.0171 27.1967 17.1893C27.1429 17.3615 27.1279 17.5435 27.1528 17.7222V20.7361H31.75L31.2222 25.875Z" fill="url(#paint0_linear)"/>
<defs>
<linearGradient id="paint0_linear" x1="25" y1="0" x2="25" y2="50" gradientUnits="userSpaceOnUse">
<stop stop-color="#05A0E8"/>
<stop offset="1" stop-color="#007FBA"/>
</linearGradient>
</defs>
</svg>
