<svg width="50" height="50" viewBox="0 0 50 50" fill="none" xmlns="http://www.w3.org/2000/svg">
<path d="M29.7851 25C29.7851 27.6428 27.6428 29.7851 25 29.7851C22.3572 29.7851 20.2148 27.6428 20.2148 25C20.2148 22.3572 22.3572 20.2148 25 20.2148C27.6428 20.2148 29.7851 22.3572 29.7851 25Z" fill="url(#paint0_linear)"/>
<path d="M36.1909 16.5333C35.9609 15.91 35.5938 15.3458 35.117 14.8828C34.6539 14.4058 34.0901 14.0389 33.4664 13.8089C32.9606 13.6124 32.2006 13.3786 30.801 13.3149C29.287 13.2458 28.8331 13.231 25.0001 13.231C21.1667 13.231 20.7127 13.2455 19.1991 13.3145C17.7995 13.3786 17.0392 13.6124 16.5337 13.8089C15.9101 14.0389 15.3459 14.4058 14.8831 14.8828C14.4063 15.3458 14.0392 15.9096 13.8089 16.5333C13.6124 17.0392 13.3786 17.7994 13.3149 19.199C13.2458 20.7128 13.231 21.1667 13.231 25C13.231 28.8331 13.2458 29.2871 13.3149 30.8011C13.3786 32.2007 13.6124 32.9606 13.8089 33.4664C14.0392 34.0901 14.4059 34.6539 14.8827 35.1171C15.3459 35.5939 15.9096 35.9608 16.5334 36.1908C17.0392 36.3876 17.7995 36.6215 19.1991 36.6853C20.7127 36.7543 21.1663 36.7687 24.9996 36.7687C28.8334 36.7687 29.2874 36.7543 30.8007 36.6853C32.2003 36.6215 32.9606 36.3876 33.4664 36.1908C34.7184 35.7079 35.708 34.7183 36.1909 33.4664C36.3873 32.9606 36.6212 32.2007 36.6852 30.8011C36.7542 29.2871 36.7688 28.8331 36.7688 25C36.7688 21.1667 36.7542 20.7128 36.6852 19.199C36.6216 17.7994 36.3877 17.0392 36.1909 16.5333ZM25.0001 32.3713C20.9287 32.3713 17.6281 29.0711 17.6281 24.9997C17.6281 20.9282 20.9287 17.6282 25.0001 17.6282C29.0712 17.6282 32.3716 20.9282 32.3716 24.9997C32.3716 29.0711 29.0712 32.3713 25.0001 32.3713ZM32.663 19.0594C31.7116 19.0594 30.9403 18.2881 30.9403 17.3367C30.9403 16.3853 31.7116 15.614 32.663 15.614C33.6144 15.614 34.3857 16.3853 34.3857 17.3367C34.3853 18.2881 33.6144 19.0594 32.663 19.0594Z" fill="url(#paint1_linear)"/>
<path d="M25 0C11.195 0 0 11.195 0 25C0 38.805 11.195 50 25 50C38.805 50 50 38.805 50 25C50 11.195 38.805 0 25 0ZM39.2689 30.9185C39.1994 32.4467 38.9564 33.49 38.6017 34.4032C37.856 36.3315 36.3315 37.856 34.4032 38.6017C33.4904 38.9564 32.4467 39.199 30.9189 39.2689C29.3881 39.3387 28.899 39.3554 25.0004 39.3554C21.1014 39.3554 20.6128 39.3387 19.0815 39.2689C17.5537 39.199 16.51 38.9564 15.5971 38.6017C14.6389 38.2412 13.7714 37.6763 13.0543 36.9457C12.3241 36.2289 11.7592 35.3611 11.3987 34.4032C11.0439 33.4904 10.8009 32.4467 10.7315 30.9189C10.6609 29.3876 10.6445 28.8986 10.6445 25C10.6445 21.1014 10.6609 20.6124 10.7311 19.0815C10.8006 17.5533 11.0432 16.51 11.3979 15.5968C11.7584 14.6389 12.3238 13.7711 13.0543 13.0543C13.7711 12.3238 14.6389 11.7588 15.5968 11.3983C16.51 11.0435 17.5533 10.8009 19.0815 10.7311C20.6124 10.6613 21.1014 10.6445 25 10.6445C28.8986 10.6445 29.3876 10.6613 30.9185 10.7315C32.4467 10.8009 33.49 11.0435 34.4032 11.3979C35.3611 11.7584 36.2289 12.3238 36.9461 13.0543C37.6763 13.7714 38.2415 14.6389 38.6017 15.5968C38.9568 16.51 39.1994 17.5533 39.2693 19.0815C39.339 20.6124 39.3554 21.1014 39.3554 25C39.3554 28.8986 39.339 29.3876 39.2689 30.9185Z" fill="url(#paint2_linear)"/>
<defs>
<linearGradient id="paint0_linear" x1="25" y1="20.2148" x2="25" y2="29.7851" gradientUnits="userSpaceOnUse">
<stop stop-color="#05A0E8"/>
<stop offset="0.645833" stop-color="#007FBA"/>
</linearGradient>
<linearGradient id="paint1_linear" x1="24.9999" y1="13.231" x2="24.9999" y2="36.7687" gradientUnits="userSpaceOnUse">
<stop stop-color="#05A0E8"/>
<stop offset="0.645833" stop-color="#007FBA"/>
</linearGradient>
<linearGradient id="paint2_linear" x1="25" y1="0" x2="25" y2="50" gradientUnits="userSpaceOnUse">
<stop stop-color="#05A0E8"/>
<stop offset="0.645833" stop-color="#007FBA"/>
</linearGradient>
</defs>
</svg>
