<svg width="26" height="30" viewBox="0 0 26 30" fill="none" xmlns="http://www.w3.org/2000/svg">
<path d="M20.0874 18.9321L17.8665 20.4612C17.8665 21.0438 17.7937 21.5535 17.6481 22.0268L19.3592 24.0292C19.068 24.8302 18.6311 25.5219 18.1578 26.1772L15.5 25.6675C15.1359 26.0316 14.699 26.3957 14.2257 26.687L14.0073 29.3447C13.6432 29.4904 13.2063 29.636 12.8058 29.7816C12.3689 29.9272 12.0049 30.0001 11.6044 30.0001L10.0388 27.7428C9.52913 27.7428 8.9466 27.67 8.4733 27.5243L6.47087 29.2355C5.6699 28.8714 4.97815 28.5073 4.32281 28.034L4.83252 25.3763C4.46845 25.0122 4.10437 24.5753 3.81311 24.102L1.15534 23.8836C1.00971 23.5195 0.864077 23.0826 0.718446 22.6821C0.572815 22.2452 0.5 21.8083 0.5 21.4806L2.72087 19.9879C2.72087 19.4054 2.79369 18.8957 2.93932 18.4224L1.22816 16.42C1.51942 15.619 1.95631 14.9273 2.42961 14.2719L5.08738 14.7816C5.45146 14.4175 5.88835 14.0535 6.36165 13.7622L6.5801 11.1044C6.94417 10.9588 7.38107 10.8132 7.78155 10.6675C8.21845 10.5947 8.58252 10.4491 8.98301 10.4491L10.4757 12.67C11.0583 12.67 11.568 12.7428 12.0413 12.8884L14.0437 11.1773C14.8447 11.5413 15.5364 11.9054 16.1917 12.3787L15.7549 15.0001C16.1189 15.3641 16.483 15.801 16.7743 16.2743L19.432 16.4928C19.5777 16.8569 19.7233 17.2938 19.8689 17.6942C20.0146 18.1675 20.0146 18.568 20.0874 18.9321ZM14.2621 21.0802C14.699 18.9321 13.2427 16.784 11.0218 16.3472C8.80097 15.9103 6.65291 17.3666 6.21602 19.5146C5.77913 21.7355 7.23544 23.8836 9.38349 24.3205C11.6772 24.7573 13.7524 23.301 14.2621 21.0802Z" fill="white"/>
<path d="M25.3667 3.82288L24.2017 5.02433C24.2745 5.38841 24.2745 5.67967 24.2745 6.04375L25.5488 7.06317C25.476 7.57288 25.3303 8.08258 25.1119 8.55589L23.4735 8.6287C23.3279 8.91996 23.1094 9.13841 22.8182 9.42967L23.0366 11.068C22.8182 11.2137 22.5997 11.3593 22.3813 11.5049C22.1628 11.6505 21.8716 11.7234 21.6531 11.7962L20.4517 10.7039C20.0876 10.7768 19.7963 10.7768 19.4323 10.7768L18.4128 12.1238C17.9031 12.051 17.3934 11.9054 16.9201 11.687L16.8473 10.0486C16.5561 9.90297 16.3376 9.68453 16.0463 9.39326L14.6993 9.5389C14.5536 9.32045 14.408 9.102 14.2624 8.88356C14.1167 8.66511 14.0439 8.37385 13.9711 8.1554L15.1362 6.95394C15.0633 6.58987 15.0633 6.2986 15.0633 5.93453L13.7891 4.91511C13.8619 4.4054 14.0075 3.89569 14.226 3.42239L15.8643 3.34958C16.0099 3.05831 16.2284 2.83987 16.5196 2.5486L16.1556 0.983071C16.374 0.837439 16.5925 0.691809 16.8109 0.546178C17.0294 0.400546 17.3206 0.327731 17.5391 0.254915L18.7405 1.41996C19.1046 1.34715 19.3959 1.34715 19.7599 1.34715L20.7794 6.10352e-05C21.2162 0.0728766 21.726 0.218508 22.2357 0.436954L22.3085 2.0753C22.5997 2.22093 22.8182 2.43938 23.1095 2.73064L24.7478 2.5122C24.8934 2.73064 25.0391 2.94909 25.1847 3.16754C25.1483 3.38598 25.2939 3.60443 25.3667 3.82288ZM21.7988 5.97093C21.7988 4.80589 20.7794 3.89569 19.6507 3.89569C18.4857 3.89569 17.5755 4.91511 17.5755 6.04375C17.5755 7.17239 18.5949 8.11899 19.7235 8.11899C20.8522 8.11899 21.7988 7.09958 21.7988 5.97093Z" fill="white"/>
</svg>
