<svg width="23" height="30" viewBox="0 0 23 30" fill="none" xmlns="http://www.w3.org/2000/svg">
<path d="M8.34253 6.82087C10.226 6.82087 11.7529 5.29398 11.7529 3.41046C11.7529 1.52695 10.226 6.10352e-05 8.34253 6.10352e-05C6.45902 6.10352e-05 4.93213 1.52695 4.93213 3.41046C4.93213 5.29398 6.45902 6.82087 8.34253 6.82087Z" fill="white"/>
<path d="M18.4792 12.8207C18.4792 11.9681 17.7845 11.2734 16.9319 11.2734H14.4373L13.0479 9.15764C12.4479 8.21031 11.3742 7.64191 10.269 7.64191H6.4481C5.27972 7.64191 4.20607 8.24188 3.6061 9.25237L0.227271 14.8101C-0.214818 15.5364 0.00622619 16.4837 0.732516 16.9258C0.985138 17.0837 1.26934 17.1468 1.52196 17.1468C2.02721 17.1468 2.53245 16.8942 2.84823 16.4205L4.96394 12.9154L4.26923 28.2622C4.20607 29.178 4.90079 29.9358 5.81654 29.999C5.84812 29.999 5.8797 29.999 5.91128 29.999C6.76388 29.999 7.49017 29.3359 7.55332 28.4517L8.09014 18.4099H8.62697L9.16379 28.4517C9.22695 29.3674 9.98481 30.0306 10.9006 29.999C11.8163 29.9358 12.511 29.178 12.4479 28.2622L11.7216 12.6944L12.3531 13.6417C12.6373 14.0838 13.111 14.3364 13.6478 14.3364H16.9635C17.7845 14.368 18.4792 13.6733 18.4792 12.8207Z" fill="white"/>
<path d="M19.1107 22.073H17.6897C17.0581 22.073 16.5529 21.6309 16.4897 21.0625C16.4581 20.7151 16.5529 20.3678 16.7739 20.1151C16.995 19.8625 17.3107 19.7046 17.6581 19.7046H19.2054C19.7738 19.7046 20.2791 20.1151 20.3738 20.6835C20.4054 20.873 20.5633 20.9993 20.7527 20.9993H22.0474C22.1422 20.9993 22.2685 20.9677 22.3316 20.873C22.3948 20.8099 22.4264 20.6835 22.4264 20.5888C22.3 19.0099 21.0369 17.7784 19.458 17.6837V16.5784C19.458 16.3574 19.3002 16.1995 19.0791 16.1995H17.7844C17.5634 16.1995 17.4055 16.3574 17.4055 16.5784V17.6837C16.5845 17.7468 15.8266 18.1257 15.2582 18.7257C14.6898 19.3573 14.374 20.2099 14.4372 21.0625C14.5319 22.7677 15.9845 24.0939 17.7528 24.0939H19.1738C19.8054 24.0939 20.3106 24.536 20.3738 25.136C20.4054 25.4834 20.3106 25.7991 20.0896 26.0518C19.8686 26.3044 19.5528 26.4623 19.2054 26.4623H17.6581C17.0897 26.4623 16.5845 26.0518 16.4897 25.4834C16.4581 25.2939 16.3003 25.1676 16.1108 25.1676H14.8161C14.7214 25.1676 14.5951 25.1992 14.5319 25.2939C14.4687 25.3571 14.4372 25.4834 14.4372 25.5781C14.5635 27.157 15.8266 28.3569 17.4055 28.4833V29.5885C17.4055 29.8095 17.5634 29.9674 17.7844 29.9674H19.0791C19.3002 29.9674 19.458 29.8095 19.458 29.5885V28.4833C20.2791 28.4201 21.0369 28.0412 21.6053 27.4412C22.1737 26.8096 22.4895 25.957 22.4264 25.1044C22.3 23.3992 20.8475 22.073 19.1107 22.073Z" fill="white"/>
</svg>
