<svg width="28" height="26" viewBox="0 0 28 26" fill="none" xmlns="http://www.w3.org/2000/svg">
<path d="M2.61538 0.500061L0.5 5.43596H28L25.8846 0.500061H2.61538Z" fill="white"/>
<path d="M25.8845 25.1796V6.49365H2.61523V25.1796H11.7819V20.5962H16.7178V25.1796H25.8845ZM20.2434 9.66673H23.064V12.4872H20.2434V9.66673ZM20.2434 14.6026H23.064V17.4231H20.2434V14.6026ZM20.2434 19.5385H23.064V22.359H20.2434V19.5385ZM15.3075 9.66673H18.1281V12.4872H15.3075V9.66673ZM8.25626 22.359H5.43575V19.5385H8.25626V22.359ZM8.25626 17.4231H5.43575V14.6026H8.25626V17.4231ZM8.25626 12.4872H5.43575V9.66673H8.25626V12.4872ZM13.1922 17.4231H10.3716V14.6026H13.1922V17.4231ZM13.1922 12.4872H10.3716V9.66673H13.1922V12.4872ZM15.3075 17.4231V14.6026H18.1281V17.4231H15.3075Z" fill="white"/>
</svg>
