<svg width="22" height="34" viewBox="0 0 22 34" fill="none" xmlns="http://www.w3.org/2000/svg">
<path d="M10.9951 33.3545C10.153 33.3545 9.38412 32.8765 8.94476 32.1227L3.08658 21.7355C2.77537 21.1656 2.46415 20.5957 2.18955 20.0074C0.212419 15.687 -1.87455 9.3076 2.97674 3.90257C5.10033 1.56775 7.93788 0.262451 10.9951 0.262451C14.0524 0.262451 16.8899 1.56775 19.0135 3.92096C23.9014 9.34437 21.7778 15.7789 19.7458 20.136C19.5078 20.6508 19.2515 21.1472 18.9769 21.6252L13.0455 32.1227C12.6244 32.8765 11.8372 33.3545 10.9951 33.3545ZM10.9951 2.1009C8.46878 2.1009 6.1072 3.18558 4.33145 5.15272C0.194112 9.74883 2.07971 15.3929 3.83716 19.2536C4.09346 19.7867 4.36806 20.3199 4.66097 20.8347L10.5191 31.2219C10.7388 31.6079 11.2148 31.6079 11.4345 31.2219L17.3659 20.7243C17.6222 20.2831 17.8602 19.8235 18.0615 19.3639C19.8739 15.4664 21.7778 9.76721 17.6222 5.15272C15.883 3.18558 13.5215 2.1009 10.9951 2.1009Z" fill="#007FBA"/>
<path d="M10.9952 16.8083C7.97459 16.8083 5.50317 14.3264 5.50317 11.2929C5.50317 8.25949 7.97459 5.77759 10.9952 5.77759C14.0158 5.77759 16.4872 8.25949 16.4872 11.2929C16.4872 14.3264 14.0158 16.8083 10.9952 16.8083ZM10.9952 7.61603C8.98146 7.61603 7.33385 9.27063 7.33385 11.2929C7.33385 13.3152 8.98146 14.9698 10.9952 14.9698C13.009 14.9698 14.6566 13.3152 14.6566 11.2929C14.6566 9.27063 13.009 7.61603 10.9952 7.61603Z" fill="#007FBA"/>
</svg>
