<svg width="50" height="51" viewBox="0 0 50 51" fill="none" xmlns="http://www.w3.org/2000/svg">
<path d="M25 0.027832C18.3696 0.027832 12.0107 2.67293 7.32233 7.38123C2.63392 12.0895 0 18.4754 0 25.1339H0C0 31.7924 2.63392 38.1783 7.32233 42.8866C12.0107 47.5949 18.3696 50.24 25 50.24C31.6304 50.24 37.9893 47.5949 42.6777 42.8866C47.3661 38.1783 50 31.7924 50 25.1339C50 18.4754 47.3661 12.0895 42.6777 7.38123C37.9893 2.67293 31.6304 0.027832 25 0.027832V0.027832ZM37.5 25.1841C37.5042 25.4542 37.4541 25.7224 37.3528 25.9726C37.2514 26.2228 37.1008 26.4499 36.91 26.6403L28.68 34.8801C28.4932 35.068 28.2714 35.2171 28.0272 35.319C27.783 35.4208 27.5212 35.4733 27.2568 35.4736C26.9924 35.4738 26.7305 35.4217 26.4861 35.3203C26.2417 35.2189 26.0196 35.0702 25.8325 34.8826C25.6454 34.695 25.4969 34.4722 25.3955 34.227C25.2941 33.9817 25.2417 33.7188 25.2415 33.4533C25.2413 33.1878 25.2931 32.9248 25.3941 32.6794C25.4951 32.434 25.6432 32.2109 25.83 32.023L30.65 27.1775H14.5C13.9696 27.1775 13.4609 26.9659 13.0858 26.5893C12.7107 26.2126 12.5 25.7017 12.5 25.169C12.5 24.6364 12.7107 24.1255 13.0858 23.7488C13.4609 23.3722 13.9696 23.1606 14.5 23.1606H30.695L25.83 18.2749C25.4521 17.8954 25.2397 17.3806 25.2397 16.8439C25.2397 16.5781 25.2919 16.3149 25.3931 16.0694C25.4944 15.8239 25.6429 15.6008 25.83 15.4128C26.0171 15.2249 26.2393 15.0758 26.4838 14.9741C26.7283 14.8724 26.9904 14.8201 27.255 14.8201C27.7895 14.8201 28.3021 15.0333 28.68 15.4128L36.91 23.6526C37.0978 23.8401 37.2466 24.0631 37.3479 24.3087C37.4492 24.5544 37.5009 24.8178 37.5 25.0837V25.1841Z" fill="#E5E5E5"/>
</svg>
