<svg width="30" height="31" viewBox="0 0 30 31" fill="none" xmlns="http://www.w3.org/2000/svg">
<path d="M27.5 30.3898H2.5C1.83696 30.3898 1.20107 30.1253 0.732233 29.6545C0.263392 29.1837 0 28.5451 0 27.8792V9.46813C0 8.80227 0.263392 8.16369 0.732233 7.69286C1.20107 7.22203 1.83696 6.95752 2.5 6.95752H27.5C28.163 6.95752 28.7989 7.22203 29.2678 7.69286C29.7366 8.16369 30 8.80227 30 9.46813V27.8792C30 28.5451 29.7366 29.1837 29.2678 29.6545C28.7989 30.1253 28.163 30.3898 27.5 30.3898ZM2.5 8.63126C2.27899 8.63126 2.06702 8.71943 1.91074 8.87637C1.75446 9.03331 1.66667 9.24617 1.66667 9.46813V27.8792C1.66667 28.1012 1.75446 28.3141 1.91074 28.471C2.06702 28.6279 2.27899 28.7161 2.5 28.7161H27.5C27.721 28.7161 27.933 28.6279 28.0893 28.471C28.2455 28.3141 28.3333 28.1012 28.3333 27.8792V9.46813C28.3333 9.24617 28.2455 9.03331 28.0893 8.87637C27.933 8.71943 27.721 8.63126 27.5 8.63126H2.5Z" fill="#007FBA"/>
<path d="M22.4998 13.6523C22.2788 13.6523 22.0669 13.5642 21.9106 13.4072C21.7543 13.2503 21.6665 13.0374 21.6665 12.8155V2.77306C21.6665 2.55111 21.5787 2.33825 21.4224 2.1813C21.2661 2.02436 21.0542 1.93619 20.8332 1.93619H9.1665C8.94549 1.93619 8.73353 2.02436 8.57725 2.1813C8.42097 2.33825 8.33317 2.55111 8.33317 2.77306V12.8155C8.33317 13.0374 8.24537 13.2503 8.08909 13.4072C7.93281 13.5642 7.72085 13.6523 7.49984 13.6523C7.27882 13.6523 7.06686 13.5642 6.91058 13.4072C6.7543 13.2503 6.6665 13.0374 6.6665 12.8155V2.77306C6.6665 2.1072 6.9299 1.46862 7.39874 0.997791C7.86758 0.526961 8.50346 0.262451 9.1665 0.262451H20.8332C21.4962 0.262451 22.1321 0.526961 22.6009 0.997791C23.0698 1.46862 23.3332 2.1072 23.3332 2.77306V12.8155C23.3332 13.0374 23.2454 13.2503 23.0891 13.4072C22.9328 13.5642 22.7208 13.6523 22.4998 13.6523Z" fill="#007FBA"/>
<path d="M29.1667 13.6525H0.833333C0.61232 13.6525 0.400358 13.5643 0.244078 13.4074C0.0877975 13.2504 0 13.0376 0 12.8156C0 12.5937 0.0877975 12.3808 0.244078 12.2239C0.400358 12.0669 0.61232 11.9788 0.833333 11.9788H29.1667C29.3877 11.9788 29.5996 12.0669 29.7559 12.2239C29.9122 12.3808 30 12.5937 30 12.8156C30 13.0376 29.9122 13.2504 29.7559 13.4074C29.5996 13.5643 29.3877 13.6525 29.1667 13.6525Z" fill="#007FBA"/>
</svg>
