<svg width="50" height="51" viewBox="0 0 50 51" fill="none" xmlns="http://www.w3.org/2000/svg">
<path d="M25 0.027832C31.6304 0.027832 37.9893 2.67293 42.6777 7.38123C47.3661 12.0895 50 18.4754 50 25.1339H50C50 31.7924 47.3661 38.1783 42.6777 42.8866C37.9893 47.5949 31.6304 50.24 25 50.24C18.3696 50.24 12.0107 47.5949 7.32233 42.8866C2.63392 38.1783 0 31.7924 0 25.1339C0 18.4754 2.63392 12.0895 7.32233 7.38123C12.0107 2.67293 18.3696 0.027832 25 0.027832V0.027832ZM12.5 25.1841C12.4958 25.4542 12.5459 25.7224 12.6472 25.9726C12.7486 26.2228 12.8992 26.4499 13.09 26.6403L21.32 34.8801C21.5068 35.068 21.7286 35.2171 21.9728 35.319C22.217 35.4208 22.4788 35.4733 22.7432 35.4736C23.0076 35.4738 23.2695 35.4217 23.5139 35.3203C23.7583 35.2189 23.9804 35.0702 24.1675 34.8826C24.3546 34.695 24.5031 34.4722 24.6045 34.227C24.7059 33.9817 24.7583 33.7188 24.7585 33.4533C24.7587 33.1878 24.7069 32.9248 24.6059 32.6794C24.5049 32.434 24.3568 32.2109 24.17 32.023L19.35 27.1775H35.5C36.0304 27.1775 36.5391 26.9659 36.9142 26.5893C37.2893 26.2126 37.5 25.7017 37.5 25.169C37.5 24.6364 37.2893 24.1255 36.9142 23.7488C36.5391 23.3722 36.0304 23.1606 35.5 23.1606H19.305L24.17 18.2749C24.5479 17.8954 24.7603 17.3806 24.7603 16.8439C24.7603 16.5781 24.7081 16.3149 24.6069 16.0694C24.5056 15.8239 24.3571 15.6008 24.17 15.4128C23.9829 15.2249 23.7607 15.0758 23.5162 14.9741C23.2717 14.8724 23.0096 14.8201 22.745 14.8201C22.2105 14.8201 21.6979 15.0333 21.32 15.4128L13.09 23.6526C12.9022 23.8401 12.7534 24.0631 12.6521 24.3087C12.5508 24.5544 12.4991 24.8178 12.5 25.0837V25.1841Z" fill="#E5E5E5"/>
</svg>
