<svg width="46" height="46" viewBox="0 0 46 46" fill="none" xmlns="http://www.w3.org/2000/svg">
<path d="M43 18H41.974C41.573 10.462 36.662 3.776 29.502 1.165C29.106 1.019 28.658 1.14 28.39 1.466C27.732 2.259 26.919 2.887 26 3.32V3C26 1.346 24.654 0 23 0C21.346 0 20 1.346 20 3V3.32C19.081 2.887 18.269 2.259 17.61 1.466C17.339 1.141 16.895 1.02 16.498 1.165C9.338 3.777 4.428 10.463 4.026 18H3C1.346 18 0 19.346 0 21C0 22.654 1.346 24 3 24H8.017C8.359 36.22 14.948 46 23 46C31.053 46 37.641 36.22 37.983 24H43C44.654 24 46 22.654 46 21C46 19.346 44.654 18 43 18ZM23 44C16.041 44 10.358 35.113 10.031 24H35.969C35.643 35.113 29.959 44 23 44ZM43 22H3C2.449 22 2 21.551 2 21C2 20.449 2.449 20 3 20H5C5.552 20 6 19.552 6 19C6 12.12 10.216 5.888 16.56 3.286C17.706 4.461 19.141 5.292 20.75 5.707C21.049 5.785 21.368 5.719 21.612 5.529C21.856 5.339 22 5.048 22 4.739V3C22 2.449 22.449 2 23 2C23.551 2 24 2.449 24 3V4.739C24 5.048 24.144 5.34 24.388 5.53C24.631 5.718 24.947 5.786 25.25 5.708C26.859 5.293 28.295 4.461 29.44 3.287C35.783 5.887 40 12.119 40 19C40 19.552 40.447 20 41 20H43C43.552 20 44 20.449 44 21C44 21.551 43.552 22 43 22Z" fill="white"/>
<path d="M19.4639 38.293C19.0729 38.684 19.0729 39.316 19.4639 39.707C20.4389 40.682 21.7189 41.169 22.9989 41.169C24.2799 41.169 25.5599 40.682 26.5349 39.707C26.9259 39.316 26.9259 38.684 26.5349 38.293C26.1439 37.902 25.5119 37.902 25.1209 38.293C23.9509 39.462 22.0479 39.463 20.8779 38.293C20.4879 37.902 19.8549 37.902 19.4639 38.293Z" fill="white"/>
<path d="M25 28C28.005 28 29.723 28.744 30.004 29.089C30.049 29.6 30.478 30 31 30C31.553 30 32 29.553 32 29C32 26.928 28.484 26 25 26C24.447 26 24 26.447 24 27C24 27.553 24.447 28 25 28Z" fill="white"/>
<path d="M15 30C15.522 30 15.951 29.6 15.996 29.089C16.278 28.744 17.996 28 21 28C21.552 28 22 27.553 22 27C22 26.447 21.552 26 21 26C17.516 26 14 26.928 14 29C14 29.553 14.448 30 15 30Z" fill="white"/>
</svg>
