<svg width="46" height="40" viewBox="0 0 46 40" fill="none" xmlns="http://www.w3.org/2000/svg">
<path d="M43.4444 6.81481H32.3704V0.851852C32.3704 0.38163 31.9896 0 31.5185 0H14.4815C14.0113 0 13.6296 0.38163 13.6296 0.851852V6.81481H2.55556C1.14659 6.81481 0 7.96141 0 9.37037V36.6296C0 38.0386 1.14659 39.1852 2.55556 39.1852H43.4444C44.8534 39.1852 46 38.0386 46 36.6296V9.37037C46 7.96141 44.8534 6.81481 43.4444 6.81481ZM15.3333 1.7037H30.6667V6.81481H15.3333V1.7037ZM44.2963 36.6296C44.2963 37.0998 43.9147 37.4815 43.4444 37.4815H2.55556C2.08619 37.4815 1.7037 37.0998 1.7037 36.6296V9.37037C1.7037 8.901 2.08619 8.51852 2.55556 8.51852H14.4815H31.5185H43.4444C43.9147 8.51852 44.2963 8.901 44.2963 9.37037V36.6296Z" fill="white"/>
<path d="M37.0224 20.4444C37.3265 20.4444 37.6084 20.2817 37.7601 20.0176C37.9126 19.7536 37.9126 19.429 37.7592 19.1658C36.3894 16.8019 33.8467 15.3333 31.1259 15.3333C28.5712 15.3333 26.1749 16.6273 24.7583 18.7407H10.6823C9.2733 18.7407 8.12671 19.8873 8.12671 21.2963V24.7037C8.12671 26.1126 9.2733 27.2592 10.6823 27.2592H24.7591C26.1757 29.3727 28.572 30.6666 31.1267 30.6666C33.8475 30.6666 36.3903 29.1981 37.7601 26.835C37.9134 26.5709 37.9134 26.2464 37.7609 25.9823C37.6084 25.7182 37.3265 25.5555 37.0224 25.5555H31.9777V20.4444H37.0224ZM31.1259 27.2592H35.2897C34.1874 28.3343 32.695 28.9629 31.1259 28.9629C29.0099 28.9629 27.0327 27.8198 25.9679 25.9806C25.8163 25.7174 25.5352 25.5555 25.231 25.5555H10.6823C10.2129 25.5555 9.83041 25.1739 9.83041 24.7037V21.2963C9.83041 20.8261 10.2129 20.4444 10.6823 20.4444H25.2319C25.5352 20.4444 25.8171 20.2826 25.9687 20.0193C27.0336 18.1793 29.0099 17.037 31.1267 17.037C32.6958 17.037 34.1883 17.6657 35.2906 18.7407H31.1267C30.6556 18.7407 30.2749 19.1223 30.2749 19.5926V26.4074C30.274 26.8785 30.6548 27.2592 31.1259 27.2592Z" fill="white"/>
</svg>
