<svg width="36" height="46" viewBox="0 0 36 46" fill="none" xmlns="http://www.w3.org/2000/svg">
<path d="M33.2222 37.4815C32.7512 37.4815 32.3704 37.8623 32.3704 38.3334V44.2963H18.7408V33.2223C18.7408 32.7512 18.3592 32.3704 17.889 32.3704H11.0742C10.604 32.3704 10.2223 32.7512 10.2223 33.2223V44.2963H3.40755V22.1483H28.1111C28.5822 22.1483 28.963 21.7666 28.963 21.2964C28.963 20.8262 28.5822 20.4446 28.1111 20.4446H3.40755V18.7409H34.9259C35.2701 18.7409 35.5819 18.533 35.713 18.2153C35.8451 17.8967 35.7718 17.5304 35.5282 17.2868L30.6667 12.4253V4.25945C30.6667 3.78923 30.2859 3.4076 29.8148 3.4076H24.7038C24.2327 3.4076 23.8519 3.78923 23.8519 4.25945V5.61048L18.4912 0.249804C18.1582 -0.0832681 17.6198 -0.0832681 17.2867 0.249804L0.249753 17.2868C0.00612414 17.5304 -0.0671348 17.8967 0.0649017 18.2153C0.196938 18.533 0.507862 18.7409 0.852009 18.7409H1.70386V45.1482C1.70386 45.6192 2.08548 46 2.5557 46H11.0742H17.889H33.2222C33.6933 46 34.0741 45.6192 34.0741 45.1482V38.3334C34.0741 37.8623 33.6933 37.4815 33.2222 37.4815ZM17.889 2.05657L24.1015 8.2691C24.346 8.51273 24.7123 8.58599 25.03 8.45395C25.3486 8.32192 25.5556 8.01099 25.5556 7.66684V5.1113H28.963V12.7779C28.963 13.0037 29.0524 13.2209 29.2126 13.3802L32.8696 17.0372H2.90837L17.889 2.05657ZM11.926 44.2963V34.0741H17.0371V44.2963H11.926Z" fill="white"/>
<path d="M34.5714 26.7729C34.3048 26.7244 34.0211 26.8138 33.8252 27.0097L31.0235 29.8115L29.819 28.6052L32.6207 25.8044C32.8158 25.6093 32.9052 25.3299 32.8575 25.0581C32.8107 24.7856 32.6343 24.5521 32.3847 24.4337C31.5874 24.053 30.6972 23.8519 29.8104 23.8519C28.2209 23.8519 26.7259 24.4712 25.6032 25.594C23.9685 27.2287 23.442 29.6598 24.2061 31.809L19.5789 36.4371C19.2458 36.7702 19.2458 37.3086 19.5789 37.6416L21.9879 40.0507C22.154 40.2168 22.3721 40.3003 22.5902 40.3003C22.8083 40.3003 23.0263 40.2168 23.1924 40.0507L27.8205 35.4243C28.462 35.6517 29.1452 35.7693 29.8258 35.7693C31.4162 35.7693 32.9112 35.1508 34.0339 34.0273C35.8143 32.246 36.2811 29.521 35.195 27.2448C35.0774 26.9952 34.844 26.8189 34.5714 26.7729ZM32.8303 32.8227C32.0287 33.6243 30.9621 34.0656 29.8266 34.0656C29.192 34.0656 28.5557 33.9225 27.9858 33.6516C27.6612 33.4966 27.2719 33.5621 27.0172 33.8177L22.591 38.243L21.3865 37.0385L25.8127 32.6115C26.0683 32.3559 26.1347 31.9683 25.9788 31.6421C25.2037 30.0168 25.5367 28.0694 26.8077 26.7976C27.7524 25.8529 29.0932 25.404 30.4161 25.5982L28.0122 28.0021C27.6791 28.3352 27.6791 28.8736 28.0122 29.2066L30.4212 31.6174C30.5814 31.7775 30.7969 31.867 31.0235 31.867C31.2501 31.867 31.4664 31.7775 31.6257 31.6174L34.0305 29.2126C34.2154 30.5151 33.7903 31.8619 32.8303 32.8227Z" fill="white"/>
</svg>
