<svg width="40" height="40" viewBox="0 0 40 40" fill="none" xmlns="http://www.w3.org/2000/svg">
<path d="M37.1053 18.5777C36.2653 17.7377 34.8001 17.7392 33.9631 18.5777L31.869 20.6718C31.869 20.6718 31.8683 20.6726 31.8675 20.6726C31.8668 20.6726 31.8668 20.6733 31.866 20.674L23.4868 29.0533C23.4238 29.1163 23.3786 29.1918 23.3416 29.2718C23.3305 29.297 23.3238 29.3215 23.3149 29.3481C23.3053 29.3763 23.2905 29.4022 23.2845 29.4318L22.2371 34.6696C22.189 34.9126 22.2645 35.1637 22.4394 35.3385C22.5794 35.4785 22.7683 35.5555 22.9631 35.5555C23.0112 35.5555 23.0601 35.5503 23.1083 35.5407L28.346 34.4933C28.3757 34.4874 28.4016 34.4726 28.4297 34.4629C28.4557 34.454 28.4801 34.4474 28.506 34.4363C28.586 34.3992 28.6616 34.354 28.7245 34.2911L39.2001 23.8155C39.6194 23.3963 39.8512 22.8377 39.8512 22.2437C39.8512 21.6503 39.6201 21.0918 39.2001 20.6726L37.1053 18.5777ZM28.2008 32.72L25.0579 29.577L32.3912 22.2452L35.5334 25.3874L28.2008 32.72ZM24.4653 31.0792L26.6986 33.3126L23.9068 33.8711L24.4653 31.0792ZM38.1527 22.7674L36.5816 24.3392L33.4394 21.197L35.0112 19.6244C35.2897 19.3452 35.7764 19.3444 36.0579 19.6244L38.1527 21.7192C38.292 21.8592 38.3697 22.0452 38.3697 22.2429C38.3697 22.4422 38.2927 22.6274 38.1527 22.7674Z" fill="white"/>
<path d="M32.915 24.863C32.6253 24.5733 32.1572 24.5733 31.8675 24.863L27.6779 29.0526C27.3883 29.3422 27.3883 29.8104 27.6779 30.1C27.8224 30.2445 28.012 30.3171 28.2016 30.3171C28.3912 30.3171 28.5809 30.2445 28.7253 30.1L32.915 25.9104C33.2038 25.6215 33.2038 25.1526 32.915 24.863Z" fill="white"/>
<path d="M39.5422 0.0570371C39.4519 0.0192594 39.3556 0 39.2593 0H0.740741C0.331852 0 0 0.331852 0 0.740741V39.2593C0 39.6689 0.331852 40 0.740741 40H39.2593C39.6689 40 40 39.6689 40 39.2593V30.3704C40 29.9607 39.6689 29.6296 39.2593 29.6296C38.8496 29.6296 38.5185 29.9607 38.5185 30.3704V38.5185H13.3333V33.3333C13.3333 32.9237 13.0015 32.5926 12.5926 32.5926H8.9637C9.30815 30.9044 10.8037 29.6296 12.5926 29.6296C13.0015 29.6296 13.3333 29.2985 13.3333 28.8889V18.5185C13.3333 18.1096 13.0015 17.7778 12.5926 17.7778H8.9637C9.30815 16.0896 10.8037 14.8148 12.5926 14.8148C13.0015 14.8148 13.3333 14.483 13.3333 14.0741V11.8519H38.5185V14.0741C38.5185 14.483 38.8496 14.8148 39.2593 14.8148C39.6689 14.8148 40 14.483 40 14.0741V0.740741C40 0.644444 39.9807 0.548148 39.943 0.457778C39.8674 0.277037 39.7237 0.132593 39.5422 0.0570371ZM38.5185 4.87852L33.0267 10.3704H30.677L38.5185 2.52889V4.87852ZM26.2326 10.3704L35.1215 1.48148H37.4711L28.5822 10.3704H26.2326ZM21.7881 10.3704L30.677 1.48148H33.0267L24.1378 10.3704H21.7881ZM17.3437 10.3704L26.2326 1.48148H28.5822L19.6933 10.3704H17.3437ZM13.3333 1.48148H15.2489L13.3333 3.39704V1.48148ZM13.3333 5.49185L17.3437 1.48148H19.6933L13.3333 7.84148V5.49185ZM7.40741 33.3333C7.40741 33.743 7.73926 34.0741 8.14815 34.0741H11.8519V38.5185H1.48148V23.7037H11.8519V28.2074C9.34296 28.5681 7.40741 30.7259 7.40741 33.3333ZM7.40741 18.5185C7.40741 18.9274 7.73926 19.2593 8.14815 19.2593H11.8519V22.2222H1.48148V1.48148H11.8519V13.3926C9.34296 13.7533 7.40741 15.9111 7.40741 18.5185ZM13.3333 9.9363L21.7881 1.48148H24.1378L15.2489 10.3704H13.3333V9.9363ZM35.1215 10.3704L38.5185 6.97333V10.3704H35.1215Z" fill="white"/>
</svg>
