<svg width="50" height="50" viewBox="0 0 50 50" fill="none" xmlns="http://www.w3.org/2000/svg">
<path d="M25 50C38.8071 50 50 38.8071 50 25C50 11.1929 38.8071 0 25 0C11.1929 0 0 11.1929 0 25C0 38.8071 11.1929 50 25 50Z" fill="url(#paint0_linear)"/>
<path d="M24.0554 35.9586H26.0137C26.3423 35.9209 26.6519 35.7854 26.9026 35.5698C27.0838 35.32 27.1766 35.017 27.1665 34.7087C27.1665 34.7087 27.1665 32.0698 28.3471 31.6948C29.5276 31.3198 31.1248 34.2364 32.7359 35.3614C33.3522 35.8516 34.1315 36.0898 34.9165 36.0281H39.3054C39.3054 36.0281 41.5971 35.8892 40.5137 34.0837C39.6499 32.647 38.5459 31.3692 37.2498 30.3059C34.4721 27.7503 34.8748 28.167 38.1804 23.7503C40.1943 21.0559 40.9582 19.417 40.7498 18.7225C40.5415 18.0281 39.0276 18.2364 39.0276 18.2364H34.0971C33.8778 18.21 33.6556 18.2486 33.4582 18.3475C33.2731 18.485 33.1251 18.6664 33.0276 18.8753C32.5176 20.2012 31.9094 21.4871 31.2082 22.7225C29.0137 26.3892 28.1387 26.6253 27.7776 26.3892C26.9443 25.8475 27.1526 24.2225 27.1526 23.0559C27.1526 19.4448 27.6943 17.9309 26.0832 17.5003C25.3285 17.3205 24.5527 17.2457 23.7776 17.2781C22.3978 17.1488 21.006 17.2903 19.6804 17.6948C19.1248 17.9725 18.6804 18.5837 18.9443 18.6114C19.4819 18.6781 19.9762 18.9401 20.3332 19.3475C20.686 20.0537 20.8578 20.8364 20.8332 21.6253C20.8332 21.6253 21.1248 25.8892 20.1526 26.417C19.4859 26.7781 18.5693 26.042 16.6109 22.6531C15.945 21.4747 15.3559 20.2546 14.8471 19.0003C14.7584 18.786 14.6204 18.5956 14.4443 18.4448C14.213 18.2921 13.9531 18.1882 13.6804 18.1392H8.98595C8.98595 18.1392 8.27762 18.1392 8.02762 18.4587C7.77762 18.7781 8.02762 19.292 8.02762 19.292C8.02762 19.292 11.6943 27.8892 15.8609 32.2087C16.8925 33.3497 18.1468 34.2675 19.5466 34.9053C20.9463 35.543 22.4619 35.8874 23.9998 35.917L24.0554 35.9586Z" fill="white"/>
<defs>
<linearGradient id="paint0_linear" x1="25" y1="0" x2="25" y2="50" gradientUnits="userSpaceOnUse">
<stop stop-color="#05A0E8"/>
<stop offset="0.59375" stop-color="#007FBA"/>
</linearGradient>
</defs>
</svg>
