<svg width="50" height="35" viewBox="0 0 50 35" fill="none" xmlns="http://www.w3.org/2000/svg">
<path d="M25.3181 35L9.01398 34.4805C7.86275 34.4315 6.69184 34.2551 5.57013 33.9905C3.46447 33.5004 2.00822 32.2361 1.26041 30.1681C0.660198 28.5019 0.443728 26.7867 0.286295 25.0422C-0.0580892 20.9453 -0.0580892 16.8485 0.109183 12.7517C0.207579 10.4386 0.266616 8.10597 0.886508 5.86154C1.26041 4.5188 1.71303 3.20546 2.80522 2.23516C3.95645 1.20605 5.30447 0.588585 6.83944 0.519977C11.0508 0.314156 15.2523 0.0593291 19.4636 0.020125C25.1312 -0.0386812 30.8086 0.0397273 36.4762 0.147539C38.9262 0.196544 41.3959 0.323957 43.8263 0.63759C46.05 0.931621 47.7129 2.16655 48.5985 4.32278C49.2774 5.97915 49.5332 7.71393 49.6808 9.47812C50.0646 13.8984 50.0744 18.3186 49.8579 22.7389C49.7497 24.9833 49.6415 27.2376 49.0019 29.4232C48.2738 31.9323 46.729 33.5887 44.151 34.1571C43.1474 34.3727 42.1044 34.4511 41.0811 34.4903L25.3181 35ZM19.8768 23.8562L33.3275 16.9073L19.8768 9.90936V23.8562Z" fill="url(#paint0_linear)"/>
<defs>
<linearGradient id="paint0_linear" x1="25" y1="0" x2="25" y2="35" gradientUnits="userSpaceOnUse">
<stop stop-color="#059EE5"/>
<stop offset="0.442708" stop-color="#007FBA"/>
<stop offset="1" stop-color="#05A0E8"/>
</linearGradient>
</defs>
</svg>
